<svg xmlns="http://www.w3.org/2000/svg" viewBox="0 0 170.33 292.82"><defs><style>.cls-1{fill:#fff2e2;}.cls-2{fill:#82b7f3;}.cls-3{fill:#ffedd5;}</style></defs><g id="レイヤー_3" data-name="レイヤー 3"><path class="cls-1" d="M166.57,170.34c4-3.51,4.43-3.34,7.43-8.34V128c0-5.26-8.93-8-12.34-11.62-1.89-2-3.09-4.5-5.12-6.44S153.3,105.37,151,104c-2.06-1.23-1.72-1.62-3-1-.6-1.81-4.48-1.33-6.89-1.49-12.21-.81-24.55-1.62-36.27-5.44a59.35,59.35,0,0,1-13.61-6.39c-2.52-1.62-11.38-7.39-10.89-11,.85-6.23-8.56-9.08-9.65-2.66-4.4,26.06-8.34,53.22-4.11,79.58C68.26,166.05,81.81,179.52,90,185c4.79,3.21,8.21,5.87,13,7-.32.64.62.24.62,1.12,0,2.74.7,6.51,0,9.14-.35,1.44.15.86-.73,1.68s-3.32,1.2-4.19,1.5l-8.1,2.81C87.93,209.18,74,215,74,215s0-1,6.39,3.33c6,4.07,13.11,7.26,19.59,10.34,7.42,3.53,15.92,1.58,24,2.33s15.44.89,23-2,14-5,21-10c2.17-1.55,6-5,6-5-3.46-3-28.13-4.07-32-8-2-2-1-8-1.05-14.41a7.9,7.9,0,0,0-.29-3.32,83.62,83.62,0,0,0,12.43-7A154.93,154.93,0,0,0,166.57,170.34Z" transform="translate(-4.41 -0.18)"/><g id="レイヤー_2" data-name="レイヤー 2"><path class="cls-2" d="M69,163c-8-17,0-72,6.49-90.19C78,80,83,89,89,93c7.28,4.85,15,6,23,7.79a97.25,97.25,0,0,0,27.86,2.3c3.66-.23,8.84-.08,12.18,1.91s5.17,7.39,7.07,10.48a11.85,11.85,0,0,0,2.52,3C166,122,174,128,174,128V25h0c-.13-.3.21.31,0,0-2.81-4.13-4.07-6.94-8.08-10.11a5.15,5.15,0,0,0-.61-.63c-7.09-6.06-16-8.8-24.93-10.91A112.66,112.66,0,0,0,111.93.21C94.59.62,77.14,5.69,63.11,16.09c-7.15,5.3-12,11.79-17.83,18.38-2.69,3.06-6.17,5.17-9,8.11A59.75,59.75,0,0,0,28,53a67.21,67.21,0,0,0-6,12c-1.73,4.32-3.52,8.38-5.14,12.87-1.46,4-2.11,8.37-3.54,12.45-1.7,4.87-3.7,9.64-5.06,14.62-2.82,10.3-3.84,21.74-3.85,32.4A54.21,54.21,0,0,0,7,152.65c1.49,5.14,3.29,10.31,2,15.67a4.77,4.77,0,0,0,.57,3.79,4.71,4.71,0,0,0,4.44,3.1c5.8.19,10.21-3.07,14.73-6.48C31,167,32,166,35.1,162.26,39.7,169,44.25,176,49.66,182s5.19,8.36,9.5,9.29C67,193,91,190.73,91,186" transform="translate(-4.41 -0.18)"/></g></g><g id="レイヤー_4" data-name="レイヤー 4"><path class="cls-3" d="M16,274c-.42,4.87-3,19-3,19H174V240h0V214h0c-6.43,6-15.17,9.75-23.06,13.35-8.88,4.06-19.85,4.56-29.51,3.33C102.24,228.24,82.68,218.34,65,211h0c-4.4,2.62-11.37,6.8-16,9-4,2-8.28,4.53-11.06,6.13-4.52,2.6-9,5.67-12.18,9.93s-3.43,12-4.55,17C19.67,259.93,17,267,16,274Z" transform="translate(-4.41 -0.18)"/></g></svg>